<svg width="160" height="64" viewBox="0 0 160 64" fill="none" xmlns="http://www.w3.org/2000/svg">
<path d="M25.6218 30.2809C25.1886 30.7167 24.857 31.2427 24.6503 31.8212C24.4437 32.3998 24.3673 33.0168 24.4263 33.6284L24.4058 33.6078C24.4666 34.3277 24.3694 35.052 24.1213 35.7305C23.8732 36.4089 23.4801 37.0251 22.9693 37.5359C22.4585 38.0467 21.8423 38.4399 21.1638 38.6879C20.4854 38.936 19.761 39.0332 19.0412 38.9724L19.0618 38.9929C18.2007 38.9128 17.3359 39.1001 16.5852 39.5295C15.8346 39.9589 15.2346 40.6093 14.8671 41.3921C14.4997 42.175 14.3826 43.052 14.5318 43.9039C14.6812 44.7557 15.0895 45.5407 15.7013 46.1519C16.3131 46.7631 17.0985 47.1708 17.9503 47.3192C18.8023 47.4678 19.6793 47.3499 20.4618 46.9817C21.2443 46.6135 21.8941 46.0131 22.3228 45.262C22.7515 44.5109 22.9381 43.646 22.8572 42.7849L22.8789 42.8055C22.8181 42.0857 22.9151 41.3613 23.1633 40.6828C23.4114 40.0044 23.8046 39.3883 24.3154 38.8774C24.8262 38.3667 25.4423 37.9734 26.1207 37.7254C26.7993 37.4773 27.5236 37.3801 28.2435 37.4409L28.2218 37.4204C28.9251 37.4836 29.6331 37.3683 30.2801 37.0851C30.9269 36.8019 31.4919 36.3599 31.9226 35.8003C32.3532 35.2406 32.6357 34.5812 32.7436 33.8833C32.8516 33.1854 32.7817 32.4716 32.5403 31.8078C32.2989 31.1441 31.8939 30.5521 31.3628 30.0867C30.8317 29.6212 30.1917 29.2973 29.5021 29.1451C28.8125 28.9928 28.0956 29.0171 27.4179 29.2156C26.7402 29.4142 26.1236 29.7806 25.6252 30.2809H25.6218Z" fill="#B4B7C9"/>
<path d="M17.1908 36.2997L17.169 36.2791C17.7808 36.3407 18.3986 36.2656 18.978 36.0592C19.5572 35.8528 20.0833 35.5204 20.5183 35.0857C20.9532 34.6511 21.2862 34.1252 21.4929 33.5461C21.6998 32.967 21.7753 32.3493 21.7142 31.7374L21.7359 31.758C21.6751 31.0381 21.7722 30.3137 22.0202 29.6352C22.2684 28.9568 22.6616 28.3407 23.1724 27.8298C23.6832 27.3191 24.2993 26.9258 24.9777 26.6778C25.6562 26.4297 26.3806 26.3326 27.1005 26.3934L27.0788 26.3728C27.9399 26.4537 28.8049 26.2669 29.556 25.8381C30.3072 25.4092 30.9077 24.7591 31.2757 23.9764C31.6437 23.1937 31.7613 22.3165 31.6125 21.4645C31.4637 20.6125 31.0557 19.8271 30.444 19.2155C29.8325 18.604 29.0471 18.1959 28.1951 18.0471C27.3431 17.8982 26.466 18.0159 25.6832 18.3839C24.9005 18.7519 24.2504 19.3524 23.8215 20.1035C23.3926 20.8546 23.2058 21.7197 23.2868 22.5808L23.2662 22.5591C23.3271 23.279 23.2302 24.0035 22.9822 24.682C22.7342 25.3606 22.3409 25.9768 21.8302 26.4877C21.3193 26.9984 20.7031 27.3917 20.0246 27.6397C19.346 27.8877 18.6215 27.9846 17.9016 27.9237L17.9222 27.9454C17.3104 27.8838 16.6925 27.9589 16.1133 28.1653C15.5341 28.3716 15.0079 28.7041 14.5729 29.1388C14.138 29.5734 13.805 30.0993 13.5982 30.6784C13.3914 31.2575 13.3159 31.8752 13.377 32.4871L13.3565 32.4665C13.417 33.1863 13.3198 33.9106 13.0717 34.589C12.8234 35.2673 12.4303 35.8834 11.9196 36.3942C11.4088 36.9049 10.7927 37.2981 10.1144 37.5463C9.43601 37.7944 8.71168 37.8917 7.9919 37.8311L8.01247 37.8517C7.15135 37.7708 6.28624 37.9575 5.53514 38.3864C4.78406 38.8153 4.18354 39.4654 3.81553 40.2481C3.44751 41.0309 3.32989 41.908 3.47872 42.76C3.62755 43.612 4.0356 44.3974 4.64718 45.0089C5.25877 45.6206 6.04412 46.0286 6.89613 46.1774C7.74814 46.3262 8.62531 46.2086 9.40802 45.8406C10.1907 45.4726 10.8409 44.8721 11.2697 44.121C11.6986 43.3698 11.8854 42.5048 11.8045 41.6437L11.8262 41.6642C11.7654 40.9444 11.8625 40.22 12.1106 39.5415C12.3586 38.8631 12.7519 38.247 13.2626 37.7361C13.7735 37.2254 14.3896 36.8321 15.068 36.5841C15.7465 36.336 16.4709 36.2389 17.1908 36.2997Z" fill="#B4B7C9"/>
<path d="M9.53157 34.0045C9.96473 33.5688 10.2964 33.0429 10.5028 32.4643C10.7093 31.8856 10.7854 31.2685 10.7259 30.6571L10.7476 30.6776C10.6868 29.9576 10.7839 29.233 11.0321 28.5543C11.2803 27.8757 11.6737 27.2595 12.1848 26.7486C12.6959 26.2378 13.3123 25.8447 13.991 25.5967C14.6697 25.3488 15.3944 25.252 16.1144 25.3131L16.0927 25.2925C16.9535 25.3732 17.8183 25.1863 18.5691 24.7575C19.3198 24.3286 19.9199 23.6787 20.2878 22.8962C20.6556 22.1137 20.7731 21.2369 20.6243 20.3852C20.4755 19.5335 20.0675 18.7484 19.4561 18.1371C18.8448 17.5257 18.0597 17.1178 17.208 16.969C16.3564 16.8201 15.4795 16.9377 14.6971 17.3055C13.9145 17.6732 13.2646 18.2734 12.8358 19.0242C12.4069 19.7749 12.22 20.6397 12.3007 21.5005L12.2801 21.4799C12.3409 22.1998 12.2438 22.9242 11.9957 23.6026C11.7476 24.2811 11.3544 24.8972 10.8436 25.408C10.3328 25.9188 9.7167 26.312 9.03825 26.56C8.35981 26.8082 7.63539 26.9053 6.91557 26.8445L6.93614 26.8651C6.23279 26.802 5.52489 26.9175 4.87806 27.2008C4.23122 27.4842 3.66637 27.9262 3.23584 28.486C2.80531 29.0456 2.52305 29.7051 2.41519 30.4029C2.30734 31.1008 2.37738 31.8147 2.61883 32.4782C2.86029 33.1419 3.26535 33.7338 3.79647 34.1991C4.32759 34.6646 4.96759 34.9884 5.65717 35.1406C6.34673 35.2927 7.06357 35.2684 7.74125 35.0699C8.41891 34.8712 9.03549 34.5048 9.53384 34.0045H9.53157Z" fill="#B4B7C9"/>
<path d="M44.9336 22.6058H48.3279V39.1235H44.9336V22.6058Z" fill="#B4B7C9"/>
<path d="M50.2502 33.4659C50.2455 32.2789 50.5931 31.1171 51.2491 30.1278C51.9051 29.1386 52.84 28.3662 53.9353 27.9087C55.0306 27.4511 56.237 27.329 57.4018 27.5576C58.5666 27.7863 59.6374 28.3555 60.4784 29.1932C61.3194 30.0308 61.8929 31.0992 62.1263 32.2631C62.3596 33.427 62.2423 34.634 61.7891 35.7311C61.336 36.8282 60.5674 37.7662 59.5808 38.4261C58.594 39.0861 57.4338 39.4384 56.2467 39.4384C55.4588 39.4475 54.677 39.2992 53.947 39.0026C53.2169 38.7059 52.5534 38.2667 51.9951 37.7107C51.4367 37.1546 50.9948 36.4927 50.6953 35.7639C50.3956 35.0351 50.2443 34.2539 50.2502 33.4659ZM58.849 33.4659C58.8348 32.9542 58.6702 32.4581 58.3756 32.0395C58.081 31.621 57.6696 31.2984 57.1928 31.1125C56.7159 30.9264 56.1948 30.8851 55.6946 30.9936C55.1944 31.1022 54.7372 31.3557 54.3803 31.7227C54.0235 32.0895 53.7826 32.5535 53.6881 33.0566C53.5935 33.5596 53.6491 34.0794 53.8483 34.5509C54.0475 35.0224 54.3812 35.4247 54.8078 35.7076C55.2344 35.9904 55.735 36.1413 56.2467 36.1413C56.5972 36.1507 56.9459 36.0872 57.2708 35.9551C57.5956 35.823 57.8896 35.6251 58.134 35.3738C58.3785 35.1223 58.5683 34.823 58.6913 34.4947C58.8144 34.1663 58.8681 33.816 58.849 33.4659Z" fill="#B4B7C9"/>
<path d="M75.7712 27.8117V38.5546C75.7712 42.3557 72.8066 43.9626 69.7975 43.9626C68.738 44.0419 67.6771 43.8279 66.7312 43.3441C65.7854 42.8602 64.991 42.1252 64.4352 41.2197L67.3312 39.5455C67.5648 40.0175 67.937 40.4068 68.3979 40.6616C68.859 40.9162 69.3867 41.0241 69.9106 40.9706C70.2455 41.017 70.5865 40.9875 70.9084 40.8843C71.2303 40.7811 71.5249 40.6068 71.7704 40.3745C72.0159 40.142 72.2059 39.8575 72.3266 39.5416C72.4472 39.2258 72.4952 38.8869 72.4672 38.55V37.5157C72.0697 38.002 71.5639 38.3884 70.99 38.6439C70.4162 38.8993 69.7906 39.0167 69.1632 38.9866C67.6704 38.9395 66.2545 38.3135 65.2152 37.2408C64.1759 36.1682 63.5947 34.7332 63.5947 33.2397C63.5947 31.7463 64.1759 30.3113 65.2152 29.2387C66.2545 28.166 67.6704 27.54 69.1632 27.4929C69.7906 27.4628 70.4162 27.5802 70.99 27.8356C71.5639 28.0911 72.0697 28.4775 72.4672 28.9637V27.8095L75.7712 27.8117ZM72.4683 33.2415C72.4912 32.6945 72.3497 32.1531 72.0623 31.6872C71.7748 31.2211 71.3545 30.8519 70.8554 30.6268C70.3563 30.4017 69.8014 30.3312 69.2618 30.4242C68.7223 30.5172 68.223 30.7696 67.828 31.1489C67.4331 31.5281 67.1608 32.0168 67.0459 32.5521C66.9312 33.0874 66.9792 33.6449 67.184 34.1527C67.3887 34.6604 67.7407 35.0954 68.1946 35.4015C68.6486 35.7075 69.1838 35.8707 69.7312 35.87C70.0879 35.8949 70.4457 35.8449 70.7818 35.7231C71.1179 35.6012 71.4248 35.4103 71.6826 35.1627C71.9404 34.9151 72.1436 34.6162 72.279 34.2852C72.4143 33.9544 72.4788 33.5988 72.4683 33.2415Z" fill="#B4B7C9"/>
<path d="M77.6935 33.4659C77.6888 32.2789 78.0364 31.1171 78.6925 30.1278C79.3485 29.1386 80.2833 28.3662 81.3787 27.9087C82.474 27.4511 83.6804 27.329 84.8452 27.5576C86.01 27.7863 87.0807 28.3555 87.9218 29.1932C88.7628 30.0308 89.3363 31.0992 89.5696 32.2631C89.803 33.427 89.6856 34.634 89.2325 35.7311C88.7793 36.8282 88.0108 37.7662 87.0241 38.4261C86.0374 39.0861 84.8772 39.4384 83.6901 39.4384C82.9022 39.4475 82.1203 39.2992 81.3903 39.0026C80.6603 38.7059 79.9967 38.2667 79.4384 37.7107C78.88 37.1546 78.4382 36.4927 78.1387 35.7639C77.839 35.0351 77.6877 34.2539 77.6935 33.4659ZM86.2924 33.4659C86.2782 32.9542 86.1135 32.4581 85.819 32.0395C85.5244 31.621 85.1129 31.2984 84.6361 31.1125C84.1592 30.9264 83.6381 30.8851 83.138 30.9936C82.6378 31.1022 82.1806 31.3557 81.8237 31.7227C81.4669 32.0895 81.226 32.5535 81.1313 33.0566C81.0367 33.5596 81.0925 34.0794 81.2917 34.5509C81.4909 35.0224 81.8246 35.4247 82.2511 35.7076C82.6778 35.9904 83.1782 36.1413 83.6901 36.1413C84.0406 36.1507 84.3893 36.0872 84.7141 35.9551C85.039 35.823 85.333 35.6251 85.5774 35.3738C85.8219 35.1223 86.0117 34.823 86.1347 34.4947C86.2577 34.1663 86.3115 33.816 86.2924 33.4659Z" fill="#B4B7C9"/>
<path d="M91.2698 24.7782C91.2698 24.3754 91.3892 23.9816 91.613 23.6467C91.8367 23.3118 92.1549 23.0507 92.527 22.8966C92.8991 22.7425 93.3086 22.7021 93.7037 22.7807C94.0987 22.8593 94.4617 23.0533 94.7465 23.3381C95.0313 23.6229 95.2252 23.9858 95.3038 24.3808C95.3823 24.7759 95.342 25.1854 95.1879 25.5575C95.0338 25.9296 94.7728 26.2477 94.4378 26.4715C94.1029 26.6953 93.7092 26.8147 93.3063 26.8147C92.7679 26.8094 92.253 26.5931 91.8722 26.2123C91.4915 25.8315 91.2751 25.3166 91.2698 24.7782ZM91.6126 27.8102H95.0081V39.1244H91.6081L91.6126 27.8102Z" fill="#B4B7C9"/>
<path d="M109.664 33.4673C109.703 34.2151 109.594 34.9632 109.343 35.6687C109.092 36.3742 108.705 37.0231 108.202 37.5782C107.699 38.1331 107.092 38.5834 106.415 38.903C105.738 39.2224 105.004 39.4049 104.256 39.4399C103.627 39.4742 102.998 39.3681 102.415 39.1294C101.832 38.8905 101.31 38.525 100.886 38.0593V43.649H97.4915V27.8102H100.886V28.873C101.31 28.4077 101.833 28.0424 102.416 27.8039C102.999 27.5653 103.627 27.4593 104.256 27.4936C105.004 27.5285 105.738 27.7109 106.415 28.0304C107.093 28.3499 107.7 28.8002 108.203 29.3554C108.705 29.9106 109.093 30.5598 109.344 31.2655C109.595 31.9711 109.704 32.7194 109.664 33.4673ZM106.27 33.4673C106.256 32.9378 106.087 32.424 105.783 31.9901C105.48 31.5562 105.055 31.2216 104.562 31.0282C104.068 30.8347 103.529 30.791 103.011 30.9025C102.494 31.0139 102.02 31.2757 101.65 31.6549C101.28 32.0342 101.031 32.5139 100.932 33.0345C100.834 33.555 100.891 34.0928 101.097 34.5809C101.303 35.069 101.648 35.4855 102.089 35.7784C102.531 36.0712 103.049 36.2274 103.578 36.2273C103.942 36.2435 104.305 36.1826 104.643 36.0487C104.982 35.9149 105.288 35.7109 105.542 35.4503C105.796 35.1896 105.993 34.8783 106.118 34.5366C106.243 34.1949 106.295 33.8304 106.27 33.4673Z" fill="#B4B7C9"/>
<path d="M120.138 35.7291C120.138 38.3314 117.877 39.44 115.433 39.44C114.446 39.5293 113.455 39.3207 112.587 38.8405C111.72 38.3605 111.017 37.6314 110.568 36.7474L113.509 35.0731C113.628 35.4817 113.883 35.8372 114.233 36.0801C114.582 36.3231 115.005 36.4388 115.429 36.408C116.242 36.408 116.65 36.1588 116.65 35.7074C116.65 34.4617 111.084 35.1188 111.084 31.2045C111.084 28.7371 113.166 27.4937 115.519 27.4937C116.404 27.4657 117.279 27.6755 118.055 28.1012C118.831 28.5271 119.479 29.1531 119.93 29.9143L117.034 31.4754C116.908 31.1791 116.696 30.9266 116.426 30.7496C116.157 30.5725 115.841 30.4788 115.519 30.48C114.93 30.48 114.568 30.7085 114.568 31.1131C114.573 32.4034 120.138 31.5428 120.138 35.7291Z" fill="#B4B7C9"/>
<path d="M132.537 27.8125V39.1268H129.143V38.0628C128.751 38.5323 128.254 38.9022 127.692 39.1422C127.129 39.3822 126.519 39.4854 125.909 39.4434C123.623 39.4434 121.68 37.8148 121.68 34.7576V27.8125H125.074V34.2605C125.046 34.53 125.077 34.8024 125.165 35.0588C125.252 35.3152 125.394 35.5495 125.582 35.7453C125.769 35.9411 125.997 36.0936 126.249 36.1925C126.501 36.2914 126.772 36.3341 127.042 36.3176C128.287 36.3176 129.146 35.5942 129.146 33.9874V27.8159L132.537 27.8125Z" fill="#B4B7C9"/>
<path d="M152 32.1773V39.1235H148.606V32.471C148.606 31.3395 148.063 30.6161 146.977 30.6161C145.846 30.6161 145.211 31.4081 145.211 32.743V39.1235H141.818V32.471C141.818 31.3395 141.276 30.6161 140.189 30.6161C139.057 30.6161 138.424 31.4081 138.424 32.743V39.1235H135.03V27.8093H138.424V28.8493C138.776 28.3879 139.238 28.0219 139.767 27.785C140.297 27.548 140.878 27.4475 141.456 27.4927C142.037 27.4642 142.615 27.5869 143.135 27.8485C143.654 28.1099 144.096 28.5017 144.419 28.9853C144.795 28.4793 145.294 28.077 145.868 27.816C146.441 27.555 147.072 27.4438 147.701 27.4927C150.298 27.4938 152 29.3487 152 32.1773Z" fill="#B4B7C9"/>
<path d="M154.871 27.7404C156.262 27.7404 157.39 26.6126 157.39 25.2215C157.39 23.8304 156.262 22.7026 154.871 22.7026C153.48 22.7026 152.352 23.8304 152.352 25.2215C152.352 26.6126 153.48 27.7404 154.871 27.7404Z" fill="#B4B7C9"/>
</svg>
